<?xml version="1.0" encoding="UTF-8" standalone="no"?>
<!DOCTYPE svg PUBLIC "-//W3C//DTD SVG 1.1//EN"
 "http://www.w3.org/Graphics/SVG/1.1/DTD/svg11.dtd">
<!-- Generated by graphviz version 9.0.0 (20231125.0833)
 -->
<!-- Pages: 1 -->
<svg width="1567pt" height="210pt"
 viewBox="0.00 0.00 1566.66 210.00" xmlns="http://www.w3.org/2000/svg" xmlns:xlink="http://www.w3.org/1999/xlink">
<g id="graph0" class="graph" transform="scale(1 1) rotate(0) translate(4 206)">
<polygon fill="white" stroke="none" points="-4,4 -4,-206 1562.66,-206 1562.66,4 -4,4"/>
<!-- 139805363422736 -->
<g id="node1" class="node">
<title>139805363422736</title>
<polygon fill="none" stroke="black" points="330.5,-165.5 330.5,-201.5 539.5,-201.5 539.5,-165.5 330.5,-165.5"/>
<text text-anchor="middle" x="381.25" y="-179.2" font-family="Times,serif" font-size="14.00">data 0.0665</text>
<polyline fill="none" stroke="black" points="432,-166.25 432,-201.5"/>
<text text-anchor="middle" x="485.75" y="-179.2" font-family="Times,serif" font-size="14.00">grad &#45;2.0000</text>
</g>
<!-- 139805363507504* -->
<g id="node12" class="node">
<title>139805363507504*</title>
<ellipse fill="none" stroke="black" cx="602.5" cy="-128.5" rx="27" ry="18"/>
<text text-anchor="middle" x="602.5" y="-123.83" font-family="Times,serif" font-size="14.00">*</text>
</g>
<!-- 139805363422736&#45;&gt;139805363507504* -->
<g id="edge14" class="edge">
<title>139805363422736&#45;&gt;139805363507504*</title>
<path fill="none" stroke="black" d="M512.75,-165.04C521.83,-162.39 530.92,-159.53 539.5,-156.5 549.61,-152.93 560.35,-148.36 570,-143.96"/>
<polygon fill="black" stroke="black" points="571.4,-147.18 578.97,-139.77 568.43,-140.84 571.4,-147.18"/>
</g>
<!-- 139805363421296 -->
<g id="node2" class="node">
<title>139805363421296</title>
<polygon fill="none" stroke="black" points="0,-83.5 0,-119.5 204.5,-119.5 204.5,-83.5 0,-83.5"/>
<text text-anchor="middle" x="50.75" y="-97.2" font-family="Times,serif" font-size="14.00">data 1.0000</text>
<polyline fill="none" stroke="black" points="101.5,-84.25 101.5,-119.5"/>
<text text-anchor="middle" x="153" y="-97.2" font-family="Times,serif" font-size="14.00">grad 0.2355</text>
</g>
<!-- 139805363508896* -->
<g id="node8" class="node">
<title>139805363508896*</title>
<ellipse fill="none" stroke="black" cx="267.5" cy="-73.5" rx="27" ry="18"/>
<text text-anchor="middle" x="267.5" y="-68.83" font-family="Times,serif" font-size="14.00">*</text>
</g>
<!-- 139805363421296&#45;&gt;139805363508896* -->
<g id="edge8" class="edge">
<title>139805363421296&#45;&gt;139805363508896*</title>
<path fill="none" stroke="black" d="M204.78,-84.09C213.65,-82.56 222.19,-81.1 229.94,-79.77"/>
<polygon fill="black" stroke="black" points="230.27,-83.26 239.54,-78.12 229.09,-76.37 230.27,-83.26"/>
</g>
<!-- 139805363509376 -->
<g id="node3" class="node">
<title>139805363509376</title>
<polygon fill="none" stroke="black" points="1000.5,-82.5 1000.5,-118.5 1205,-118.5 1205,-82.5 1000.5,-82.5"/>
<text text-anchor="middle" x="1051.25" y="-96.2" font-family="Times,serif" font-size="14.00">data 0.1024</text>
<polyline fill="none" stroke="black" points="1102,-83.25 1102,-118.5"/>
<text text-anchor="middle" x="1153.5" y="-96.2" font-family="Times,serif" font-size="14.00">grad 1.0000</text>
</g>
<!-- 139805363507648ReLU -->
<g id="node14" class="node">
<title>139805363507648ReLU</title>
<ellipse fill="none" stroke="black" cx="1279.58" cy="-100.5" rx="38.58" ry="18"/>
<text text-anchor="middle" x="1279.58" y="-95.83" font-family="Times,serif" font-size="14.00">ReLU</text>
</g>
<!-- 139805363509376&#45;&gt;139805363507648ReLU -->
<g id="edge13" class="edge">
<title>139805363509376&#45;&gt;139805363507648ReLU</title>
<path fill="none" stroke="black" d="M1205.45,-100.5C1213.63,-100.5 1221.65,-100.5 1229.19,-100.5"/>
<polygon fill="black" stroke="black" points="1229.1,-104 1239.1,-100.5 1229.1,-97 1229.1,-104"/>
</g>
<!-- 139805363509376+ -->
<g id="node4" class="node">
<title>139805363509376+</title>
<ellipse fill="none" stroke="black" cx="937.5" cy="-100.5" rx="27" ry="18"/>
<text text-anchor="middle" x="937.5" y="-95.83" font-family="Times,serif" font-size="14.00">+</text>
</g>
<!-- 139805363509376+&#45;&gt;139805363509376 -->
<g id="edge1" class="edge">
<title>139805363509376+&#45;&gt;139805363509376</title>
<path fill="none" stroke="black" d="M964.73,-100.5C971.83,-100.5 979.98,-100.5 988.7,-100.5"/>
<polygon fill="black" stroke="black" points="988.5,-104 998.5,-100.5 988.5,-97 988.5,-104"/>
</g>
<!-- 139805363507360 -->
<g id="node5" class="node">
<title>139805363507360</title>
<polygon fill="none" stroke="black" points="667.75,-55.5 667.75,-91.5 872.25,-91.5 872.25,-55.5 667.75,-55.5"/>
<text text-anchor="middle" x="718.5" y="-69.2" font-family="Times,serif" font-size="14.00">data 0.2355</text>
<polyline fill="none" stroke="black" points="769.25,-56.25 769.25,-91.5"/>
<text text-anchor="middle" x="820.75" y="-69.2" font-family="Times,serif" font-size="14.00">grad 1.0000</text>
</g>
<!-- 139805363507360&#45;&gt;139805363509376+ -->
<g id="edge7" class="edge">
<title>139805363507360&#45;&gt;139805363509376+</title>
<path fill="none" stroke="black" d="M872.51,-90.06C882.15,-91.63 891.44,-93.15 899.8,-94.51"/>
<polygon fill="black" stroke="black" points="899.02,-97.93 909.46,-96.09 900.15,-91.02 899.02,-97.93"/>
</g>
<!-- 139805363507360+ -->
<g id="node6" class="node">
<title>139805363507360+</title>
<ellipse fill="none" stroke="black" cx="602.5" cy="-73.5" rx="27" ry="18"/>
<text text-anchor="middle" x="602.5" y="-68.83" font-family="Times,serif" font-size="14.00">+</text>
</g>
<!-- 139805363507360+&#45;&gt;139805363507360 -->
<g id="edge2" class="edge">
<title>139805363507360+&#45;&gt;139805363507360</title>
<path fill="none" stroke="black" d="M629.72,-73.5C637.39,-73.5 646.29,-73.5 655.82,-73.5"/>
<polygon fill="black" stroke="black" points="655.75,-77 665.75,-73.5 655.75,-70 655.75,-77"/>
</g>
<!-- 139805363508896 -->
<g id="node7" class="node">
<title>139805363508896</title>
<polygon fill="none" stroke="black" points="332.75,-55.5 332.75,-91.5 537.25,-91.5 537.25,-55.5 332.75,-55.5"/>
<text text-anchor="middle" x="383.5" y="-69.2" font-family="Times,serif" font-size="14.00">data 0.2355</text>
<polyline fill="none" stroke="black" points="434.25,-56.25 434.25,-91.5"/>
<text text-anchor="middle" x="485.75" y="-69.2" font-family="Times,serif" font-size="14.00">grad 1.0000</text>
</g>
<!-- 139805363508896&#45;&gt;139805363507360+ -->
<g id="edge12" class="edge">
<title>139805363508896&#45;&gt;139805363507360+</title>
<path fill="none" stroke="black" d="M537.51,-73.5C546.67,-73.5 555.5,-73.5 563.52,-73.5"/>
<polygon fill="black" stroke="black" points="563.51,-77 573.51,-73.5 563.51,-70 563.51,-77"/>
</g>
<!-- 139805363508896*&#45;&gt;139805363508896 -->
<g id="edge3" class="edge">
<title>139805363508896*&#45;&gt;139805363508896</title>
<path fill="none" stroke="black" d="M294.72,-73.5C302.39,-73.5 311.29,-73.5 320.82,-73.5"/>
<polygon fill="black" stroke="black" points="320.75,-77 330.75,-73.5 320.75,-70 320.75,-77"/>
</g>
<!-- 139805363423408 -->
<g id="node9" class="node">
<title>139805363423408</title>
<polygon fill="none" stroke="black" points="330.5,-110.5 330.5,-146.5 539.5,-146.5 539.5,-110.5 330.5,-110.5"/>
<text text-anchor="middle" x="383.5" y="-124.2" font-family="Times,serif" font-size="14.00">data &#45;2.0000</text>
<polyline fill="none" stroke="black" points="436.5,-111.25 436.5,-146.5"/>
<text text-anchor="middle" x="488" y="-124.2" font-family="Times,serif" font-size="14.00">grad 0.0665</text>
</g>
<!-- 139805363423408&#45;&gt;139805363507504* -->
<g id="edge6" class="edge">
<title>139805363423408&#45;&gt;139805363507504*</title>
<path fill="none" stroke="black" d="M539.87,-128.5C548.3,-128.5 556.41,-128.5 563.82,-128.5"/>
<polygon fill="black" stroke="black" points="563.69,-132 573.69,-128.5 563.69,-125 563.69,-132"/>
</g>
<!-- 139805363421440 -->
<g id="node10" class="node">
<title>139805363421440</title>
<polygon fill="none" stroke="black" points="332.75,-0.5 332.75,-36.5 537.25,-36.5 537.25,-0.5 332.75,-0.5"/>
<text text-anchor="middle" x="383.5" y="-14.2" font-family="Times,serif" font-size="14.00">data 0.0000</text>
<polyline fill="none" stroke="black" points="434.25,-1.25 434.25,-36.5"/>
<text text-anchor="middle" x="485.75" y="-14.2" font-family="Times,serif" font-size="14.00">grad 1.0000</text>
</g>
<!-- 139805363421440&#45;&gt;139805363507360+ -->
<g id="edge10" class="edge">
<title>139805363421440&#45;&gt;139805363507360+</title>
<path fill="none" stroke="black" d="M512.75,-36.96C521.83,-39.61 530.92,-42.47 539.5,-45.5 549.61,-49.07 560.35,-53.64 570,-58.04"/>
<polygon fill="black" stroke="black" points="568.43,-61.16 578.97,-62.23 571.4,-54.82 568.43,-61.16"/>
</g>
<!-- 139805363507504 -->
<g id="node11" class="node">
<title>139805363507504</title>
<polygon fill="none" stroke="black" points="665.5,-110.5 665.5,-146.5 874.5,-146.5 874.5,-110.5 665.5,-110.5"/>
<text text-anchor="middle" x="718.5" y="-124.2" font-family="Times,serif" font-size="14.00">data &#45;0.1331</text>
<polyline fill="none" stroke="black" points="771.5,-111.25 771.5,-146.5"/>
<text text-anchor="middle" x="823" y="-124.2" font-family="Times,serif" font-size="14.00">grad 1.0000</text>
</g>
<!-- 139805363507504&#45;&gt;139805363509376+ -->
<g id="edge9" class="edge">
<title>139805363507504&#45;&gt;139805363509376+</title>
<path fill="none" stroke="black" d="M874.87,-110.93C883.57,-109.46 891.93,-108.04 899.54,-106.75"/>
<polygon fill="black" stroke="black" points="900.04,-110.22 909.32,-105.1 898.87,-103.32 900.04,-110.22"/>
</g>
<!-- 139805363507504*&#45;&gt;139805363507504 -->
<g id="edge4" class="edge">
<title>139805363507504*&#45;&gt;139805363507504</title>
<path fill="none" stroke="black" d="M629.72,-128.5C636.84,-128.5 645.02,-128.5 653.78,-128.5"/>
<polygon fill="black" stroke="black" points="653.63,-132 663.63,-128.5 653.63,-125 653.63,-132"/>
</g>
<!-- 139805363507648 -->
<g id="node13" class="node">
<title>139805363507648</title>
<polygon fill="none" stroke="black" points="1354.16,-82.5 1354.16,-118.5 1558.66,-118.5 1558.66,-82.5 1354.16,-82.5"/>
<text text-anchor="middle" x="1404.91" y="-96.2" font-family="Times,serif" font-size="14.00">data 0.1024</text>
<polyline fill="none" stroke="black" points="1455.66,-83.25 1455.66,-118.5"/>
<text text-anchor="middle" x="1507.16" y="-96.2" font-family="Times,serif" font-size="14.00">grad 1.0000</text>
</g>
<!-- 139805363507648ReLU&#45;&gt;139805363507648 -->
<g id="edge5" class="edge">
<title>139805363507648ReLU&#45;&gt;139805363507648</title>
<path fill="none" stroke="black" d="M1318.52,-100.5C1325.92,-100.5 1334.03,-100.5 1342.48,-100.5"/>
<polygon fill="black" stroke="black" points="1342.26,-104 1352.26,-100.5 1342.26,-97 1342.26,-104"/>
</g>
<!-- 139805363422688 -->
<g id="node15" class="node">
<title>139805363422688</title>
<polygon fill="none" stroke="black" points="0,-28.5 0,-64.5 204.5,-64.5 204.5,-28.5 0,-28.5"/>
<text text-anchor="middle" x="50.75" y="-42.2" font-family="Times,serif" font-size="14.00">data 0.2355</text>
<polyline fill="none" stroke="black" points="101.5,-29.25 101.5,-64.5"/>
<text text-anchor="middle" x="153" y="-42.2" font-family="Times,serif" font-size="14.00">grad 1.0000</text>
</g>
<!-- 139805363422688&#45;&gt;139805363508896* -->
<g id="edge11" class="edge">
<title>139805363422688&#45;&gt;139805363508896*</title>
<path fill="none" stroke="black" d="M204.78,-63.29C213.65,-64.76 222.19,-66.17 229.94,-67.45"/>
<polygon fill="black" stroke="black" points="229.1,-70.86 239.54,-69.04 230.24,-63.96 229.1,-70.86"/>
</g>
</g>
</svg>
